<?xml version="1.0" standalone="no"?><!DOCTYPE svg PUBLIC "-//W3C//DTD SVG 1.1//EN" "http://www.w3.org/Graphics/SVG/1.1/DTD/svg11.dtd"><svg t="1635050148518" class="icon" viewBox="0 0 1024 1024" version="1.1" xmlns="http://www.w3.org/2000/svg" p-id="1062" width="256" height="256" xmlns:xlink="http://www.w3.org/1999/xlink"><defs><style type="text/css">@font-face { font-family: element-icons; src: url("chrome-extension://moombeodfomdpjnpocobemoiaemednkg/fonts/element-icons.woff") format("woff"), url("chrome-extension://moombeodfomdpjnpocobemoiaemednkg/fonts/element-icons.ttf ") format("truetype"); }
</style></defs><path d="M534.576 0.496C527.088 0.16 519.568 0 512 0c-61.856 0-121.152 10.976-176.048 31.072C390.848 10.976 450.144 0 512 0c7.568 0 15.088 0.16 22.576 0.496zM536.16 0.56c5.104 0.24 10.176 0.544 15.232 0.928-5.056-0.384-10.144-0.688-15.232-0.928zM0 512c0-141.392 57.312-269.392 149.968-362.032C57.312 242.608 0 370.608 0 512c0 149.696 64.24 284.384 166.672 378.016C64.24 796.384 0 661.696 0 512zM322.192 36.336c4.56-1.824 9.152-3.584 13.776-5.28-4.64 1.712-9.216 3.456-13.776 5.28zM312.704 40.24c2.48-1.056 4.976-2.08 7.488-3.088-2.512 1.008-5.008 2.032-7.488 3.088zM298.256 46.608c0.224-0.096 0.448-0.208 0.672-0.304-0.224 0.112-0.448 0.208-0.672 0.304zM437.408 722.032c43.504 0.352 83.776 14.464 116.672 38.208 16.112-7.648 33.76-12.752 52.464-14.784 5.872-0.64 11.856-0.928 17.936-0.88-28.08-37.072-85.152-122.288-105.28-225.36-50.688 82.16-73.84 167.856-81.792 202.816z" fill="#F3A6A7" p-id="1063"></path><path d="M367.104 717.52c12.336 0 24.96 1.248 37.664 3.696 9.376-44.688 49.536-204.192 162.976-314.496 6.336-6.16 16.448-6.016 22.624 0.32 6.16 6.336 6.016 16.464-0.32 22.624-13.184 12.816-25.344 26.432-36.528 40.496 36.592-30.208 118.864-62.656 190.512 15.904 3.04 3.344 4.528 7.824 4.096 12.336-0.432 4.496-2.752 8.608-6.384 11.312-2.352 1.744-51.952 38.016-105.12 38.016-7.296 0-14.672-0.672-21.984-2.224-28.32-6-50.96-23.52-67.344-52.128 18.688 132.496 110.64 242.32 116.816 249.552 80.656-7.744 153.76 44.784 173.968 121.008 94.608-87.728 153.92-213.04 153.92-351.936 0-264.672-215.328-480-480-480S32 247.328 32 512c0 133.744 54.976 254.88 143.52 342 27.504-79.344 102.992-136.48 191.584-136.48z m533.792-352.784c7.984-3.776 17.488-0.352 21.264 7.632 2.24 4.736 54.256 117.744 0.528 262.4-2.4 6.448-8.512 10.432-15.008 10.432-1.856 0-3.728-0.336-5.568-1.008-8.288-3.072-12.512-12.288-9.424-20.576 48.848-131.504 1.008-236.576 0.528-237.632-3.728-7.984-0.304-17.504 7.68-21.248z m-33.44-59.152c0.64-0.8 1.44-1.44 2.4-2.08 0.8-0.48 1.76-0.96 2.72-1.44 0.96-0.32 1.92-0.64 3.04-0.96 2.08-0.32 4.16-0.32 6.24 0l2.88 0.96c1.12 0.48 1.92 0.96 2.88 1.44 0.8 0.64 1.6 1.28 2.4 2.08 3.04 2.88 4.64 7.04 4.64 11.2 0 2.24-0.32 4.16-1.12 6.24-0.96 1.92-2.08 3.68-3.52 5.12-0.8 0.8-1.6 1.44-2.4 2.08-0.96 0.48-1.76 0.96-2.88 1.44-0.96 0.32-1.92 0.64-2.88 0.8-1.12 0.32-2.08 0.32-3.2 0.32-0.96 0-2.08 0-3.04-0.32-1.12-0.16-2.08-0.48-3.04-0.8-0.96-0.48-1.92-0.96-2.72-1.44-0.96-0.64-1.76-1.28-2.4-2.08-1.6-1.44-2.72-3.2-3.52-5.12-0.8-2.08-1.28-4-1.28-6.24 0-4.16 1.76-8.32 4.8-11.2z" fill="#F3A6A7" p-id="1064"></path><path d="M664.912 768.832c-5.04 0.544-10.24 1.456-16.432 2.896-1.568 0.368-3.168 0.432-4.752 0.208-11.808-1.68-23.392-1.936-34.4-0.752-1.968 0.208-3.936 0.464-5.872 0.768 4.384 16.368 7.152 33.808 8.08 51.952 17.104 29.696 26.88 64.128 26.88 100.784 0 18.048-2.384 35.568-6.832 52.24 50.304-12.944 97.44-33.872 139.984-61.328-8.048-57.424-42.224-85.488-42.56-85.76-5.552-4.464-6.48-12.592-2.048-18.16 4.432-5.584 12.496-6.544 18.112-2.128 1.632 1.28 37.536 30.208 49.952 89.904 7.088-5.184 14.016-10.56 20.8-16.128-11.872-71.536-77.936-122.368-150.912-114.496z m54.704 35.088c-0.368 1.632-1.152 3.216-2.112 4.56-0.928 1.472-2.192 2.608-3.616 3.504-1.552 0.912-3.136 1.584-4.8 1.872-0.752 0.128-1.68 0.144-2.464 0.16-0.928-0.112-1.728-0.112-2.56-0.352s-1.664-0.512-2.368-0.784c-0.848-0.384-1.568-0.784-2.192-1.344-1.472-0.928-2.592-2.176-3.504-3.6-0.896-1.424-1.568-3.008-1.84-4.672-0.576-3.44 0.288-6.864 2.288-9.696 2.832-4.16 8.384-6.272 13.424-5.168 1.648 0.384 3.216 1.152 4.56 2.112 2.832 2.016 4.64 4.992 5.232 8.432 0.304 1.632 0.336 3.328-0.048 4.976z" fill="#EA5654" p-id="1065"></path><path d="M576.4 778.896c13.712 13.232 25.584 28.384 35.152 45.008-0.944-18.128-3.712-35.568-8.08-51.952-9.408 1.408-18.464 3.76-27.072 6.944z" fill="#E3413E" p-id="1066"></path><path d="M745.072 809.552c-5.616-4.416-13.68-3.456-18.112 2.128-4.432 5.568-3.504 13.696 2.048 18.16 0.352 0.272 34.512 28.32 42.56 85.76 7.984-5.152 15.792-10.528 23.44-16.128-12.384-59.712-48.304-88.624-49.936-89.92zM714.464 790.496c-1.344-0.96-2.928-1.728-4.56-2.112-5.04-1.104-10.592 1.008-13.424 5.168-2.016 2.832-2.88 6.256-2.288 9.696 0.288 1.664 0.944 3.248 1.84 4.672 0.896 1.424 2.032 2.672 3.504 3.6 0.624 0.56 1.344 0.96 2.192 1.344 0.704 0.272 1.536 0.528 2.368 0.784s1.616 0.256 2.56 0.352c0.784 0 1.712-0.032 2.464-0.16 1.664-0.288 3.248-0.944 4.8-1.872 1.424-0.896 2.672-2.032 3.616-3.504 0.944-1.344 1.728-2.912 2.112-4.56 0.384-1.648 0.352-3.344 0.064-4.992-0.608-3.44-2.416-6.416-5.248-8.416z" fill="#FFFFFF" p-id="1067"></path><path d="M434.032 1018.096l-0.576-0.096c0.192 0.048 0.384 0.064 0.576 0.096zM427.68 1017.088c-5.056-0.832-10.096-1.744-15.088-2.736 5.008 0.992 10.032 1.904 15.088 2.736zM408.304 1013.488c-2.56-0.528-5.136-1.072-7.68-1.648 2.56 0.576 5.12 1.12 7.68 1.648zM364.8 1002.528c-1.44-0.432-2.864-0.864-4.304-1.312 1.44 0.432 2.864 0.88 4.304 1.312zM398.208 1011.312c-10.528-2.384-20.944-5.104-31.216-8.128 10.272 3.024 20.688 5.728 31.216 8.128zM440.4 1019.04c-2.08-0.288-4.144-0.592-6.208-0.912 2.064 0.304 4.128 0.608 6.208 0.912zM452.816 1020.624c-1.888-0.224-3.76-0.448-5.632-0.672 1.888 0.224 3.76 0.448 5.632 0.672zM512 992c28.48 0 56.384-2.496 83.52-7.28 7.04-18.688 10.912-38.928 10.912-60.032 0-94.096-76.56-170.672-170.672-170.672-6.208 0-12.944 0.448-20.608 1.36-1.936 0.24-3.936 0.112-5.856-0.368-14.304-3.648-28.48-5.488-42.192-5.488-2.448 0-4.896 0.048-7.328 0.16 6 38.736 4.56 81.296-5.648 124.528-6.8 28.768-16.928 55.536-29.648 79.648C382.128 978.4 445.504 992 512 992z m67.44-43.888c0.256 8.672-6.432 15.936-15.024 16.448-0.16 0.016-0.32 0.016-0.496 0.016-8.832 0.272-16.208-6.688-16.464-15.52-2.144-71.952-40.576-111.136-40.976-111.52-6.224-6.224-6.288-16.336-0.096-22.592 6.192-6.288 16.24-6.384 22.544-0.208 1.968 1.92 47.968 47.936 50.512 133.376z m-108.144-159.536c4.048-4.736 11.136-6.608 17.2-4.56 1.968 0.688 3.792 1.856 5.328 3.216 3.216 2.848 5.056 6.752 5.312 11.056 0.128 2.08-0.064 4.16-0.752 6.128-0.672 1.968-1.856 3.792-3.2 5.312-1.344 1.68-3.04 2.912-4.896 3.824-2.032 0.928-4.064 1.536-6.16 1.648-0.944 0.064-2.08-0.032-3.056-0.144-1.136-0.256-2.096-0.352-3.088-0.784s-1.984-0.848-2.8-1.264c-0.992-0.576-1.824-1.168-2.512-1.936-1.68-1.344-2.912-3.024-3.824-4.896-0.912-1.872-1.52-3.92-1.648-5.984-0.272-4.288 1.248-8.4 4.096-11.616z" fill="#EA5654" p-id="1068"></path><path d="M359.776 749.68c-76.304 3.232-139.792 56.8-158.064 128.272 36.624 31.104 77.968 56.816 122.768 75.904 12.72-24.112 22.848-50.88 29.648-79.648 10.208-43.232 11.648-85.792 5.648-124.528zM287.312 972.192c-0.032-0.016-0.08-0.032-0.112-0.064 0.032 0.032 0.08 0.048 0.112 0.064zM247.008 950.176c-0.304-0.192-0.624-0.384-0.928-0.56 0.304 0.192 0.624 0.368 0.928 0.56zM252.448 953.424c-0.4-0.24-0.8-0.48-1.2-0.704 0.4 0.224 0.8 0.464 1.2 0.704zM242.48 947.408c-0.816-0.496-1.616-1.008-2.416-1.52 0.8 0.512 1.616 1.008 2.416 1.52zM292.992 974.928l-0.288-0.144 0.288 0.144zM196.496 915.264c10.016 7.84 20.32 15.328 30.928 22.416-10.592-7.088-20.912-14.576-30.928-22.416zM258.944 957.184l-2.496-1.44c0.832 0.496 1.664 0.976 2.496 1.44zM235.28 942.848c-2.064-1.328-4.112-2.672-6.16-4.016 2.048 1.36 4.096 2.688 6.16 4.016z" fill="#E3413E" p-id="1069"></path><path d="M528.944 814.752c-6.32-6.176-16.368-6.08-22.544 0.208-6.192 6.256-6.128 16.368 0.096 22.592 0.384 0.384 38.832 39.568 40.976 111.52 0.256 8.832 7.632 15.776 16.464 15.52 0.16 0 0.336-0.016 0.496-0.016 8.592-0.512 15.28-7.776 15.024-16.448-2.56-85.456-48.56-131.472-50.512-133.376zM468.832 806.208c0.912 1.872 2.144 3.552 3.824 4.896 0.688 0.768 1.52 1.36 2.512 1.936 0.832 0.432 1.808 0.848 2.8 1.264s1.952 0.528 3.088 0.784c0.976 0.096 2.096 0.192 3.056 0.144 2.08-0.128 4.128-0.736 6.16-1.648 1.872-0.912 3.552-2.144 4.896-3.824 1.344-1.52 2.528-3.36 3.2-5.312 0.688-1.968 0.88-4.064 0.752-6.128-0.256-4.32-2.096-8.208-5.312-11.056-1.536-1.36-3.36-2.528-5.328-3.216-6.048-2.032-13.152-0.176-17.2 4.56-2.848 3.216-4.368 7.312-4.112 11.632 0.144 2.048 0.752 4.096 1.664 5.968zM893.216 386c0.48 1.04 48.32 106.112-0.528 237.632-3.072 8.288 1.152 17.488 9.424 20.576 1.84 0.672 3.712 1.008 5.568 1.008 6.496 0 12.608-4 15.008-10.432 53.728-144.656 1.696-257.664-0.528-262.4-3.776-7.984-13.296-11.392-21.264-7.632-7.984 3.728-11.408 13.248-7.68 21.248zM867.456 328.16c0.64 0.8 1.44 1.44 2.4 2.08 0.8 0.48 1.76 0.96 2.72 1.44 0.96 0.32 1.92 0.64 3.04 0.8 0.96 0.32 2.08 0.32 3.04 0.32 1.12 0 2.08 0 3.2-0.32 0.96-0.16 1.92-0.48 2.88-0.8 1.12-0.48 1.92-0.96 2.88-1.44 0.8-0.64 1.6-1.28 2.4-2.08 1.44-1.44 2.56-3.2 3.52-5.12 0.8-2.08 1.12-4 1.12-6.24 0-4.16-1.6-8.32-4.64-11.2-0.8-0.8-1.6-1.44-2.4-2.08-0.96-0.48-1.76-0.96-2.88-1.44l-2.88-0.96c-2.08-0.32-4.16-0.32-6.24 0-1.12 0.32-2.08 0.64-3.04 0.96-0.96 0.48-1.92 0.96-2.72 1.44-0.96 0.64-1.76 1.28-2.4 2.08-3.04 2.88-4.8 7.04-4.8 11.2 0 2.24 0.48 4.16 1.28 6.24 0.8 1.904 1.92 3.664 3.52 5.12z" fill="#FFFFFF" p-id="1070"></path><path d="M551.392 1.488c-5.056-0.384-10.144-0.688-15.232-0.928-0.528-0.032-1.056-0.048-1.584-0.08-7.488-0.32-15.008-0.48-22.576-0.48-61.856 0-121.152 10.976-176.048 31.072-4.624 1.696-9.216 3.456-13.776 5.28-0.672 0.272-1.328 0.528-2 0.8-2.496 1.008-4.992 2.048-7.488 3.088-4.624 1.952-9.232 3.984-13.792 6.08-0.224 0.096-0.448 0.208-0.672 0.304-55.488 25.536-105.632 60.688-148.288 103.344C57.312 242.608 0 370.608 0 512c0 149.696 64.24 284.384 166.672 378.016 9.616 8.784 19.568 17.216 29.824 25.248 10.016 7.84 20.32 15.328 30.928 22.416 0.576 0.384 1.136 0.768 1.712 1.136 2.048 1.36 4.096 2.704 6.16 4.016 1.584 1.024 3.184 2.032 4.784 3.04 0.8 0.512 1.616 1.008 2.416 1.52 1.2 0.736 2.384 1.472 3.6 2.208 0.304 0.192 0.624 0.384 0.928 0.56 1.408 0.848 2.816 1.696 4.224 2.528 0.4 0.24 0.8 0.48 1.2 0.704 1.328 0.784 2.656 1.568 4 2.336l2.496 1.44c9.248 5.264 18.656 10.256 28.256 14.944 0.032 0.016 0.08 0.032 0.112 0.064 1.792 0.88 3.584 1.744 5.392 2.592l0.288 0.144c6.496 3.072 13.072 6.032 19.712 8.832l2.88 1.2c2.88 1.2 5.776 2.368 8.688 3.52s5.824 2.272 8.752 3.36c9.04 3.376 18.208 6.496 27.488 9.36 1.424 0.448 2.864 0.88 4.304 1.312 0.736 0.224 1.456 0.432 2.192 0.656 10.272 3.024 20.688 5.744 31.216 8.128 0.8 0.176 1.616 0.368 2.416 0.544 2.56 0.56 5.12 1.12 7.68 1.648 1.424 0.288 2.848 0.576 4.288 0.864 5.008 0.992 10.032 1.904 15.088 2.736 1.92 0.32 3.84 0.624 5.776 0.928l0.576 0.096c0.048 0 0.096 0.016 0.16 0.016 2.064 0.32 4.144 0.624 6.208 0.912 2.256 0.32 4.528 0.624 6.8 0.896 1.872 0.24 3.744 0.464 5.632 0.672 19.408 2.24 39.168 3.376 59.184 3.376 282.768 0 512-229.232 512-512C1024 242.48 815.76 21.6 551.392 1.488zM32 512c0-264.672 215.328-480 480-480s480 215.328 480 480c0 138.896-59.296 264.208-153.92 351.936-20.208-76.24-93.328-128.752-173.968-121.008-6.176-7.232-98.128-117.056-116.816-249.552 16.384 28.592 39.024 46.128 67.344 52.128 7.312 1.552 14.688 2.224 21.984 2.224 53.168 0 102.768-36.272 105.12-38.016 3.648-2.688 5.952-6.8 6.384-11.312 0.432-4.512-1.04-8.992-4.096-12.336-71.632-78.56-153.92-46.112-190.512-15.904 11.184-14.08 23.328-27.68 36.528-40.496 6.336-6.16 6.464-16.288 0.32-22.624-6.176-6.336-16.288-6.48-22.624-0.32-113.456 110.304-153.6 269.808-162.976 314.496-12.704-2.448-25.312-3.696-37.664-3.696-88.592 0-164.08 57.136-191.568 136.48C86.976 766.88 32 645.744 32 512z m763.024 387.472c-7.648 5.6-15.456 10.976-23.44 16.128-42.544 27.456-89.68 48.368-139.984 61.328 4.448-16.672 6.832-34.176 6.832-52.24 0-36.656-9.792-71.088-26.88-100.784-9.568-16.624-21.424-31.76-35.152-45.008 8.608-3.184 17.664-5.536 27.056-6.944 1.936-0.288 3.904-0.544 5.872-0.768 11.008-1.184 22.592-0.928 34.4 0.752 1.584 0.24 3.2 0.16 4.752-0.208 6.192-1.424 11.392-2.352 16.432-2.896 72.992-7.888 139.04 42.96 150.912 114.512-6.784 5.552-13.712 10.928-20.8 16.128zM519.2 519.232c20.128 103.056 77.2 188.272 105.28 225.36-6.08-0.048-12.064 0.24-17.936 0.88-18.704 2.016-36.352 7.136-52.464 14.784-32.896-23.744-73.168-37.856-116.672-38.208 7.952-34.976 31.104-120.672 81.792-202.816z m63.264-30.544c21.728-14.336 72.464-38.224 124.048 5.472-19.744 11.152-54.32 26.608-85.344 20-15.424-3.296-28.176-11.664-38.704-25.472zM324.48 953.856c-44.816-19.088-86.144-44.8-122.768-75.904 18.256-71.472 81.76-125.04 158.064-128.272 2.432-0.096 4.864-0.16 7.328-0.16 13.696 0 27.888 1.84 42.192 5.488 1.92 0.496 3.92 0.608 5.856 0.368 7.664-0.928 14.4-1.36 20.608-1.36 94.112 0 170.672 76.56 170.672 170.672 0 21.12-3.856 41.36-10.912 60.032-27.136 4.784-55.04 7.28-83.52 7.28-66.496 0-129.872-13.6-187.52-38.144z" fill="#333333" p-id="1071"></path><path d="M706.496 494.16c-51.584-43.696-102.32-19.808-124.048-5.472 10.528 13.808 23.28 22.176 38.704 25.472 31.04 6.592 65.6-8.848 85.344-20z" fill="#1DA244" p-id="1072"></path></svg>