<?xml version="1.0" standalone="no"?><!DOCTYPE svg PUBLIC "-//W3C//DTD SVG 1.1//EN" "http://www.w3.org/Graphics/SVG/1.1/DTD/svg11.dtd"><svg t="1637734513126" class="icon" viewBox="0 0 1024 1024" version="1.1" xmlns="http://www.w3.org/2000/svg" p-id="28580" width="512" height="512" xmlns:xlink="http://www.w3.org/1999/xlink"><defs><style type="text/css">@font-face { font-family: element-icons; src: url("chrome-extension://moombeodfomdpjnpocobemoiaemednkg/fonts/element-icons.woff") format("woff"), url("chrome-extension://moombeodfomdpjnpocobemoiaemednkg/fonts/element-icons.ttf ") format("truetype"); }
</style></defs><path d="M449.536 282.368S208.9984 256.5632 168.6016 482.816s244.992 487.7824 442.4704 453.0688c83.3536-14.6432 156.0576-105.5232 205.8752-208.7424 6.7072-13.9264 13.0048-28.0064 18.8416-42.24 6.6048-15.9744 12.5952-32.0512 18.0224-47.9744 27.4944-81.0496 39.2704-158.5664 29.5424-203.1104-25.9072-118.784-225.6896-212.1728-350.8736-155.2896-31.5904 1.3824-82.944 3.84-82.944 3.84z" fill="#FF8697" p-id="28581"></path><path d="M689.8688 898.56c-111.9744 43.1104-212.0704-37.5296-278.1696-119.7568-81.7152-101.6832-108.3392-237.6192-65.9456-360.96 20.0192-58.2144 45.056-93.5936 45.056-93.5936l-3.1744-40.3968c-74.1888 8.6528-191.8976 46.7968-219.0848 199.0144-40.3968 226.2528 244.992 487.7824 442.4704 453.0688 27.5968-4.9152 54.016-18.1248 78.848-37.376z" fill="#E8627F" p-id="28582"></path><path d="M575.3856 954.2656c-92.3136 0-201.8816-52.1728-289.7408-140.288-101.8368-102.144-151.2448-226.9184-132.1472-333.8752 40.8064-228.608 276.3264-214.784 296.3456-213.1456 7.168-0.3584 50.0224-2.3552 79.0016-3.6864 74.2912-32.5632 171.776-27.5968 249.2928 12.8512 65.4336 34.1504 108.1856 89.1392 120.32 154.88 9.0112 48.7936-2.5088 129.5872-30.1056 210.8416a15.33952 15.33952 0 0 1-19.456 9.6256 15.36 15.36 0 0 1-9.6256-19.456c25.6-75.4176 36.9664-152.1152 28.9792-195.3792-10.3936-56.2176-47.4112-103.5776-104.2944-133.2224-70.4-36.7616-158.7712-41.0112-225.1264-10.8544-1.792 0.8192-3.6864 1.28-5.6832 1.3824-31.5392 1.3824-82.8416 3.84-82.8416 3.84-0.768 0.0512-1.5872 0-2.3552-0.0512-9.216-0.9728-226.816-21.3504-264.192 187.8528-17.3568 97.0752 28.8768 211.7632 123.648 306.7904 93.4912 93.7472 211.6608 144.1792 301.0048 128.4608 68.096-11.9808 139.0592-84.992 194.6624-200.2944a15.3856 15.3856 0 0 1 20.5312-7.168c7.6288 3.6864 10.8544 12.8512 7.168 20.5312-35.2256 73.0624-110.336 198.4512-217.0368 217.1904-12.3904 2.0992-25.1904 3.1744-38.3488 3.1744z" fill="#000F04" p-id="28583"></path><path d="M517.2224 252.5184s-62.976-53.0432-191.8976-27.9552c16.2304 30.8224 70.4512 58.4192 70.4512 58.4192s-86.6816 9.1136-121.088 106.7008c53.4016-3.584 119.552-18.944 146.8928-41.3696C391.6288 415.744 395.776 462.336 420.352 499.712c44.7488-42.6496 115.968-107.9808 115.8144-131.0208 36.864 54.6816 106.9568 76.032 180.6336 77.056-24.4736-62.9248-81.3056-139.3152-81.3056-139.3152s123.8528-23.5008 159.9488-19.6608c-47.0016-51.968-123.5968-77.7728-203.9296-44.8512 35.4816-37.4784 74.3424-68.8128 74.3424-68.8128s-114.3808-12.4416-148.6336 79.4112z" fill="#BFE5BD" p-id="28584"></path><path d="M609.2288 277.4016c2.4064-20.3776 18.6368-36.7104 39.5776-49.5104-18.6368 1.536-37.888 6.0416-57.344 14.0288 35.4816-37.4784 74.3424-68.8128 74.3424-68.8128s-114.3296-12.4416-148.6336 79.4112c0 0-3.7376-3.1232-11.2128-7.5264-3.072 19.5584-26.368 39.6288-110.2336 37.9392 0 0-86.6816 9.1136-121.088 106.7008 53.4016-3.584 119.552-18.944 146.8928-41.3696-1.024 2.304-1.8944 4.5056-2.8672 6.7584 3.84-3.328 7.68-6.7072 11.4688-10.1888 95.1808 13.6192 171.5712-3.584 179.0976-67.4304z" fill="#A2DD9E" p-id="28585"></path><path d="M420.352 515.072a15.47264 15.47264 0 0 1-12.8512-6.912c-24.0128-36.5568-28.7744-77.6704-14.2848-127.2832-34.9696 13.3632-80.64 21.6576-117.4528 24.1152a15.36 15.36 0 0 1-13.2608-6.0416c-3.1232-4.096-3.9936-9.5232-2.2528-14.3872 22.6816-64.4608 66.2016-93.6448 97.4848-106.6496-17.0496-11.776-36.4544-28.1088-45.9776-46.1824-2.2528-4.3008-2.3552-9.4208-0.256-13.7728 2.0992-4.4032 6.144-7.5264 10.9056-8.448 98.2016-19.0976 160.6144 5.0688 188.2624 20.48 35.9424-66.0992 116.48-76.4928 156.8256-72.0896 6.1952 0.6656 11.3152 5.0176 13.056 10.9568s-0.256 12.3904-5.12 16.2816c-0.2048 0.2048-13.9776 11.264-32.3072 27.904 61.0304-6.5024 120.4736 15.7184 163.6352 63.488 4.2496 4.7104 5.1712 11.6224 2.304 17.2544a15.31392 15.31392 0 0 1-15.3088 8.2944c-22.6304-2.4576-89.6 7.8336-131.7376 15.2064 18.8416 27.2896 51.6096 77.9264 69.0688 122.9312 1.8432 4.7616 1.2288 10.1376-1.6896 14.336a15.4112 15.4112 0 0 1-12.8 6.6048c-76.8-1.024-138.3936-23.3472-176.7424-63.4368-15.5136 22.8352-46.8992 54.3744-96.512 101.376l-12.3904 11.776c-2.8672 2.6624-6.7072 4.1984-10.5984 4.1984z m1.28-182.1184c3.2768 0 6.5536 1.024 9.3184 3.1232 5.6832 4.3008 7.6288 11.9296 4.7104 18.432-21.6576 48.7424-25.4464 87.4496-11.4176 120.2176 31.9488-30.3616 94.2592-89.7536 96.512-106.2912-0.0512-6.7584 4.352-12.5952 10.8032-14.6432 6.5024-1.9968 13.4656 0.6656 17.3056 6.2464 26.6752 39.6288 77.312 63.744 143.9744 69.12-26.2656-54.9888-69.2224-112.9984-69.6832-113.664-3.1744-4.2496-3.8912-9.8304-1.9968-14.7456s6.2464-8.5504 11.4688-9.5232c9.6256-1.8432 75.4176-14.1312 123.8016-18.688-39.2704-27.8016-95.5392-42.5984-159.1296-16.5376-6.7072 2.7648-14.3872 0.4608-18.4832-5.5296-4.096-5.9904-3.4816-13.9776 1.4848-19.2512 14.592-15.4112 29.5936-29.696 42.3936-41.3184-32 5.0688-73.6256 20.992-91.0848 67.84a15.34464 15.34464 0 0 1-24.2176 6.4c-0.768-0.6656-51.7632-41.0624-153.6-28.7232 16.2304 15.2064 39.0144 28.5696 48.9984 33.6896 6.0416 3.072 9.3696 9.7792 8.1408 16.4864a15.32416 15.32416 0 0 1-13.4656 12.4928c-2.816 0.3072-64 8.0896-98.2528 73.6256 48.4352-6.1952 94.2592-20.2752 112.7424-35.4304a15.8208 15.8208 0 0 1 9.6768-3.328z" fill="#000F04" p-id="28586"></path><path d="M508.8256 303.2064s64.3072 3.1744 72.0896-32.5632c-17.3056-7.3216-21.9648-30.3616-45.7728-83.6608-19.712-44.1856-88.1664-88.7808-147.1488-101.9392-30.3104 34.4064-35.6352 39.8848-35.6352 39.8848s86.4256-20.4288 131.84 125.0304c2.7136 15.1552 5.2224 33.0752-3.6864 46.1312 5.376 7.2192 28.3136 7.1168 28.3136 7.1168z" fill="#A2DD9E" p-id="28587"></path><path d="M520.8576 319.1296c-4.608 0-8.96-0.2048-12.9024-0.6144-4.864-0.1536-20.8384-1.536-29.6448-13.6704a15.3088 15.3088 0 0 1-0.256-17.7152c5.2224-7.6288 6.656-18.5856 4.2496-32.6144-40.5504-128.512-123.5968-115.2512-127.0784-114.5856-6.9632 1.2288-13.9264-2.4064-16.7936-8.8576a15.36 15.36 0 0 1 4.5568-18.3808c0.1536-0.1024 16.9984-13.4144 45.6704-45.9776 3.6864-4.1984 9.4208-6.0928 14.848-4.864 62.5152 13.9264 120.4224 69.888 145.3056 117.9648 9.7792 18.8928 16.384 35.5328 21.6576 48.896 5.632 14.2336 11.4688 28.9792 16.1792 30.9248 6.8096 2.8672 10.5984 10.1888 9.0112 17.408-7.168 33.3312-45.7216 42.0864-74.8032 42.0864z m-9.6256-31.1296c9.9328 0.8192 38.5536 0.6656 49.9712-9.8816-7.7824-8.9088-12.9536-21.9648-19.3024-37.9904-5.3248-13.3632-11.3152-28.5184-20.3776-46.08-19.9168-38.5024-66.5088-84.992-116.1728-99.84a651.776 651.776 0 0 1-16.4352 17.5616c37.4784 8.0384 92.5184 37.12 122.9824 134.7072 0.2048 0.6144 0.3584 1.2288 0.4608 1.8432 2.7136 14.7968 2.3552 28.1088-1.1264 39.68zM815.9744 512.3072c-1.3312 0-2.7136-0.1536-4.0448-0.5632a15.36 15.36 0 0 1-10.8032-18.8416c3.328-12.1856 1.9968-24.3712 1.9968-24.4736-0.9728-8.448 5.0176-16.0768 13.4656-17.0496 8.3968-0.9216 16.0768 5.0176 17.0496 13.4656 0.2048 1.8432 1.9456 18.3808-2.8672 36.1472a15.34976 15.34976 0 0 1-14.7968 11.3152zM716.2368 584.4992c-5.632 0-11.0592-3.1232-13.7728-8.4992-1.4336-2.8672-2.7648-5.5808-3.6864-35.584a15.34464 15.34464 0 0 1 14.8992-15.8208c8.3968-0.2048 15.5648 6.4 15.8208 14.8992 0.3072 9.6768 0.9216 21.7088 1.4336 25.1904 2.1504 7.0656-1.024 14.7968-7.8336 18.2272-2.2016 1.024-4.5568 1.5872-6.8608 1.5872z m13.7728-22.2208zM767.2832 708.5568a15.36 15.36 0 0 1-11.8784-25.088c1.2288-2.048 3.8912-11.6224 5.3248-19.7632a15.33952 15.33952 0 0 1 17.7664-12.4928c8.3456 1.4848 13.9264 9.4208 12.4928 17.7664-1.6384 9.2672-5.3248 26.0096-11.776 33.9456-3.072 3.6864-7.4752 5.632-11.9296 5.632zM622.2336 653.1584c-1.6384 0-3.2768-0.256-4.9152-0.8192a15.33952 15.33952 0 0 1-9.6256-19.456c1.4848-4.4032 3.84-16.9984 5.0176-24.5248 1.28-8.3968 9.1648-14.08 17.5616-12.8 8.3968 1.28 14.1312 9.1648 12.8 17.5616-0.5632 3.4816-3.3792 21.1456-6.2464 29.6448a15.488 15.488 0 0 1-14.592 10.3936zM502.0672 542.5664c-3.7888 0-7.5776-1.3824-10.496-4.1984-4.9664-4.6592-8.9088-11.264-2.4064-39.9872a15.34976 15.34976 0 0 1 18.3808-11.6224c8.2944 1.8432 13.4656 10.0864 11.6224 18.3808-1.3824 6.0928-2.5088 13.312-2.6112 16.64 1.9968 5.3248 0.9216 11.52-3.2256 15.9232-3.1232 3.2768-7.168 4.864-11.264 4.864z m14.3872-19.5072z m-3.84-7.0144z m-0.0512 0s0.0512 0 0 0c0.0512 0 0 0 0 0zM303.0016 555.4688c-8.192 0-14.9504-6.4-15.3088-14.6432-0.256-6.0416 1.3824-20.8896 1.8944-25.2928 0.9728-8.448 8.704-14.4384 17.0496-13.4656 8.448 0.9728 14.4384 8.6016 13.4656 17.0496-0.9216 7.8336-1.8432 17.8688-1.7408 20.3264a15.3856 15.3856 0 0 1-14.6944 16.0256h-0.6656zM293.8368 666.88c-3.584 0-7.2192-1.2288-10.1376-3.7888-7.1168-6.1952-16.4352-22.5792-20.1216-29.3376a15.3856 15.3856 0 0 1 6.144-20.8384c7.4752-4.0448 16.7936-1.3312 20.8384 6.144 4.9152 9.0112 11.2128 18.8416 13.4144 20.9408a15.32928 15.32928 0 0 1 1.4336 21.6576 15.2064 15.2064 0 0 1-11.5712 5.2224zM441.344 695.0912c-6.912 0-13.1584-4.7104-14.8992-11.6736-0.4096-1.536-0.8704-3.4816-2.0992-31.4368a15.35488 15.35488 0 0 1 14.6944-16.0256 15.22688 15.22688 0 0 1 16.0256 14.6944c0.4608 10.752 1.1264 23.6544 1.4336 26.4704 1.3824 7.8848-3.584 15.616-11.4688 17.5616-1.28 0.256-2.5088 0.4096-3.6864 0.4096z m14.8992-19.0464c0.0512 0.3072 0.1536 0.5632 0.2048 0.8704-0.1024-0.4096-0.1536-0.6656-0.2048-0.8704zM495.7696 791.2448c-2.2016 0-4.4032-0.4608-6.5024-1.4848-3.9424-1.8432-11.2128-5.2736-20.992-37.3248a15.36 15.36 0 0 1 10.1888-19.1488 15.4112 15.4112 0 0 1 19.2 10.1888c2.4576 8.0896 6.0928 17.3056 7.9872 20.5824 5.2736 4.352 7.1168 11.8784 4.096 18.3296a15.54432 15.54432 0 0 1-13.9776 8.8576z m6.5536-29.2352zM684.6464 816.896c-3.328 0-6.7072-1.0752-9.5232-3.328a15.37536 15.37536 0 0 1-2.56-21.5552c1.28-1.8432 3.4816-8.8064 4.5056-13.4656a15.37536 15.37536 0 0 1 18.2784-11.7248c8.2944 1.792 13.5168 9.984 11.7248 18.2784-0.9216 4.1472-4.352 18.2272-10.4448 25.9584-2.9696 3.84-7.4752 5.8368-11.9808 5.8368zM596.1728 888.9344c-1.1776 0-2.4064-0.1536-3.6352-0.4608-8.7552-2.1504-14.3872-8.704-22.528-40.192-2.0992-8.192 2.816-16.5888 11.0592-18.688 8.2432-2.1504 16.5888 2.816 18.688 11.008 2.2528 8.6016 5.2736 18.0736 7.0144 21.8112 3.84 3.6864 5.6832 9.216 4.352 14.7456a15.4368 15.4368 0 0 1-14.9504 11.776z m3.6864-30.2592z m-0.0512-0.0512zM364.3904 792.832c-2.9696 0-5.9904-0.8704-8.6528-2.6624-14.6432-9.984-14.7456-32.8704-14.4384-39.6288a15.38048 15.38048 0 0 1 16.0768-14.592c8.448 0.4096 15.0016 7.5776 14.592 16.0256-0.2048 4.8128 0.7168 11.2128 1.8432 13.4144a15.3088 15.3088 0 0 1 3.2256 20.736c-2.9184 4.4032-7.7824 6.7072-12.6464 6.7072zM596.8896 758.6816c-0.4096 0-0.8192 0-1.2288-0.0512a15.3856 15.3856 0 0 1-14.1312-16.0256c0-2.4064-0.4608-15.8208-0.9728-27.5968a15.34464 15.34464 0 0 1 14.6944-15.9744 15.40608 15.40608 0 0 1 15.9744 14.6944c1.1776 27.904 1.024 29.7984 0.9216 30.7712a15.26784 15.26784 0 0 1-15.2576 14.1824z m0-15.36zM496.4352 879.8208c-0.4096 0-0.8192 0-1.28-0.0512-7.68-0.6144-14.3872-5.2224-24.1152-26.1632a15.3088 15.3088 0 0 1 7.4752-20.3776c7.68-3.584 16.8448-0.256 20.3776 7.424 1.8944 4.0448 4.4544 8.704 5.9392 10.9568a15.4112 15.4112 0 0 1 6.8608 14.08 15.29856 15.29856 0 0 1-15.2576 14.1312z" fill="#000F04" p-id="28588"></path></svg>